<svg width="16" height="16" viewBox="0 0 16 16" fill="none" xmlns="http://www.w3.org/2000/svg">
<path d="M8.00022 15.9999C12.4182 15.9999 16 12.4186 16 8.00016C16 3.58175 12.4182 0 8.00022 0C3.58177 0 0 3.58175 0 8.00016C0 12.4186 3.58177 15.9999 8.00022 15.9999Z" fill="#0000FF"/>
<path d="M7.95743 7.5H8.04257C8.12213 6.43339 12 6.53729 12 5.42855V4.5H11.9135C11.9139 4.50328 11.9139 4.52012 11.9107 4.54212C11.7837 5.40374 8.0435 5.50109 8.04257 6.44368H7.95743C7.9565 5.50109 4.21634 5.40374 4.08979 4.54212C4.08654 4.52012 4.08607 4.50328 4.08654 4.5H4V5.42855C4 6.53729 7.87787 6.43339 7.95743 7.5Z" fill="white"/>
<path d="M7.95743 10H8.04257C8.12213 8.93339 12 9.03729 12 7.92855V7H11.9135C11.9139 7.00328 11.9139 7.02012 11.9107 7.04212C11.7837 7.90374 8.0435 8.00109 8.04257 8.94368H7.95743C7.9565 8.00109 4.21634 7.90374 4.08979 7.04212C4.08654 7.02012 4.08607 7.00328 4.08654 7H4V7.92855C4 9.03729 7.87787 8.93339 7.95743 10Z" fill="white"/>
<path d="M7.95743 12.5H8.04257C8.12213 11.4334 12 11.5373 12 10.4285V9.5H11.9135C11.9139 9.50328 11.9139 9.52012 11.9107 9.54212C11.7837 10.4037 8.0435 10.5011 8.04257 11.4437H7.95743C7.9565 10.5011 4.21634 10.4037 4.08979 9.54212C4.08654 9.52012 4.08607 9.50328 4.08654 9.5H4V10.4285C4 11.5373 7.87787 11.4334 7.95743 12.5Z" fill="white"/>
</svg>
