<svg width="437" height="159" viewBox="0 0 437 159" fill="none" xmlns="http://www.w3.org/2000/svg">
<rect x="179.801" width="154" height="4.8" transform="rotate(90 179.801 0)" fill="#0000FF"/>
<path fill-rule="evenodd" clip-rule="evenodd" d="M324.712 115.987H329.901V37H324.712V115.987ZM318.37 87.88C318.37 103.403 305.787 115.987 290.264 115.987C274.741 115.987 262.157 103.403 262.157 87.88C262.157 72.3572 274.741 59.7735 290.264 59.7735C305.787 59.7735 318.37 72.3572 318.37 87.88ZM313.182 87.8801C313.182 100.537 302.921 110.798 290.264 110.798C277.607 110.798 267.347 100.537 267.347 87.8801C267.347 75.223 277.607 64.9624 290.264 64.9624C302.921 64.9624 313.182 75.223 313.182 87.8801ZM257.018 101.545C257.018 104.822 256.19 107.626 254.535 109.956C252.914 112.254 250.532 114.01 247.39 115.226C244.249 116.409 240.38 117 235.786 117C231.969 117 228.557 116.662 225.55 115.987C222.544 115.311 220.027 114.483 218 113.504V108.436C220.534 109.686 223.338 110.7 226.412 111.477C229.486 112.254 232.644 112.642 235.888 112.642C241.563 112.642 245.65 111.679 248.15 109.754C250.65 107.828 251.9 105.193 251.9 101.849C251.9 99.653 251.275 97.8457 250.025 96.4268C248.809 94.9742 247.052 93.7243 244.755 92.677C242.458 91.6298 239.688 90.5657 236.445 89.4847C233.067 88.3361 230.06 87.2044 227.425 86.0896C224.824 84.941 222.78 83.4377 221.294 81.5797C219.807 79.6879 219.064 77.1205 219.064 73.8774C219.064 69.452 220.838 66.0063 224.385 63.5402C227.932 61.0741 232.695 59.8411 238.675 59.8411C241.985 59.8411 245.059 60.162 247.897 60.8038C250.768 61.4119 253.37 62.2058 255.701 63.1855L253.876 67.5433C251.782 66.5637 249.366 65.7698 246.63 65.1617C243.894 64.5536 241.157 64.2496 238.421 64.2496C233.928 64.2496 230.415 65.0435 227.881 66.6312C225.348 68.219 224.081 70.5499 224.081 73.6241C224.081 75.9888 224.689 77.8468 225.905 79.1981C227.121 80.5156 228.861 81.6304 231.124 82.5425C233.388 83.4208 236.073 84.4005 239.181 85.4815C242.391 86.5963 245.346 87.7618 248.049 88.9779C250.785 90.1941 252.964 91.7649 254.586 93.6905C256.207 95.6161 257.018 98.2342 257.018 101.545ZM436.704 101.545C436.704 104.822 435.876 107.626 434.221 109.956C432.599 112.254 430.218 114.01 427.076 115.226C423.934 116.409 420.066 117 415.472 117C411.655 117 408.243 116.662 405.236 115.987C402.229 115.311 399.713 114.483 397.686 113.504V108.436C400.219 109.686 403.023 110.7 406.098 111.477C409.172 112.254 412.33 112.642 415.573 112.642C421.249 112.642 425.336 111.679 427.836 109.754C430.336 107.828 431.586 105.193 431.586 101.849C431.586 99.653 430.961 97.8457 429.711 96.4268C428.495 94.9742 426.738 93.7243 424.441 92.677C422.144 91.6298 419.374 90.5657 416.131 89.4847C412.753 88.3361 409.746 87.2044 407.111 86.0896C404.51 84.941 402.466 83.4377 400.98 81.5797C399.493 79.6879 398.75 77.1205 398.75 73.8774C398.75 69.452 400.523 66.0063 404.071 63.5402C407.618 61.0741 412.381 59.8411 418.36 59.8411C421.671 59.8411 424.745 60.162 427.583 60.8038C430.454 61.4119 433.055 62.2058 435.386 63.1855L433.562 67.5433C431.468 66.5637 429.052 65.7698 426.316 65.1617C423.58 64.5536 420.843 64.2496 418.107 64.2496C413.614 64.2496 410.101 65.0435 407.567 66.6312C405.033 68.219 403.767 70.5499 403.767 73.6241C403.767 75.9888 404.375 77.8468 405.591 79.1981C406.807 80.5156 408.547 81.6304 410.81 82.5425C413.073 83.4208 415.759 84.4005 418.867 85.4815C422.076 86.5963 425.032 87.7618 427.735 88.9779C430.471 90.1941 432.65 91.7649 434.272 93.6905C435.893 95.6161 436.704 98.2342 436.704 101.545ZM364.35 115.987C373.807 115.987 382.173 111.316 387.268 104.155V115.987H392.457V62.6563H387.268V71.605C382.173 64.4443 373.807 59.7735 364.35 59.7735C348.827 59.7735 336.243 72.3572 336.243 87.88C336.243 103.403 348.827 115.987 364.35 115.987ZM364.35 110.798C377.007 110.798 387.268 100.537 387.268 87.8801C387.268 75.223 377.007 64.9624 364.35 64.9624C351.693 64.9624 341.432 75.223 341.432 87.8801C341.432 100.537 351.693 110.798 364.35 110.798Z" fill="#0000FF"/>
<path d="M140.446 51.2347C142.22 51.2347 143.882 51.8436 145.1 52.6797V48.6443C144.179 48.1828 142.188 47.6101 139.588 47.6101C133.209 47.6101 130.592 51.4594 130.592 56.3454V79.0884H136.942V61.8354H141.425V58.1891H136.942V55.3305C136.942 52.9793 138.233 51.225 140.446 51.2347ZM115.55 57.2926C118.982 57.2684 120.439 60.3372 120.506 66.8349C120.572 73.2383 119.117 76.1477 115.55 76.1477C111.991 76.1477 110.614 73.2383 110.614 66.8349C110.614 60.1173 111.974 57.3143 115.55 57.2926ZM115.594 79.8085C121.611 79.8085 127.241 76.3072 127.192 66.8349C127.149 57.3047 122.091 53.6173 115.594 53.668C109.384 53.697 103.901 57.3119 103.916 66.8349C103.947 76.3531 109.587 79.8085 115.594 79.8085ZM31.3885 72.0471C31.3885 69.1667 34.1601 67.7169 36.951 66.9171C38.0818 66.5981 39.3166 66.2985 40.1623 66.0931V73.8231C39.3673 74.5528 37.3183 75.6402 35.1242 75.6402C32.7586 75.6402 31.4006 74.4489 31.3885 72.0471ZM40.6238 77.351C40.7664 77.9382 40.9621 78.7284 41.0612 79.0836H47.0417C46.7348 78.0977 46.4739 76.2322 46.4739 73.9101V61.5865C46.4739 54.3422 41.0757 53.668 36.3276 53.668C28.2448 53.668 26.058 58.0586 26.058 61.3642L31.8645 61.3545C31.8766 58.5346 34.032 57.063 36.4097 57.063C38.3742 57.063 40.1623 57.9498 40.1623 61.1322V62.686C39.174 62.9783 34.7134 64.0005 32.6837 64.4983C28.0733 65.5977 24.8547 67.8981 24.8813 72.6511C24.8982 77.3438 28.0999 79.8085 32.848 79.8085C37.1346 79.8037 39.8289 77.8971 40.6238 77.351ZM9.11934 75.6306H6.86246V64.2953H9.11934C12.6182 64.288 15.1047 65.9288 15.1506 69.7225C15.1723 73.5235 13.2827 75.6306 9.11934 75.6306ZM6.86246 51.7542H8.58774C11.5091 51.7421 13.9448 52.6579 13.94 56.0747C13.9351 59.4456 11.8667 60.8278 8.56358 60.8374H6.86246V51.7542ZM22.448 70.1816C22.448 64.5997 17.4582 62.3863 14.2058 62.2075C17.4655 61.4995 20.8387 59.8008 20.8387 55.1444C20.8387 50.2971 16.9677 48.3229 12.6424 48.3109H0V79.086H11.2796C17.3398 79.1053 22.448 76.2322 22.448 70.1816ZM65.3601 63.3481V79.086H71.662V63.0315C71.662 59.0493 70.9733 53.668 63.8644 53.668C60.5274 53.668 57.6761 55.5528 56.7241 56.1617V54.3228H50.4198V79.086H56.7241V60.0448C57.722 59.2402 59.5222 57.9184 61.5326 57.9184C64.6256 57.9184 65.3698 59.7428 65.3601 63.3481ZM75.6176 48.3109V79.086H81.9605V48.3109H75.6176ZM88.504 64.0101L96.5167 54.3228H91.0799L81.9605 65.2014L89.0356 79.0884H96.8574L88.504 64.0101ZM33.9571 98.4461C34.2809 95.515 35.1435 91.5811 38.8116 91.5618C42.4724 91.5618 43.4268 95.4087 43.596 98.4461H33.9571ZM38.8116 87.9421C32.3696 87.9493 27.1889 92.0282 27.1671 100.705C27.1526 110.762 32.4445 114.08 38.8116 114.08C43.8255 114.08 48.7235 111.867 50.0331 105.011L43.4268 104.999C43.0499 108.23 41.8707 110.441 38.8116 110.431C34.9816 110.414 33.8895 107.106 33.8822 101.747H50.3207C50.34 101.389 50.34 101.029 50.34 100.669C50.3666 91.9919 45.0385 87.9421 38.8116 87.9421ZM78.899 108.095C78.0992 108.827 76.0598 109.914 73.8681 109.914C71.5001 109.914 70.1469 108.721 70.1373 106.319C70.1324 103.438 72.9064 101.989 75.6925 101.189C76.833 100.87 78.0702 100.573 78.899 100.367V108.095ZM85.225 95.8606C85.225 88.6138 79.8172 87.9421 75.0787 87.9421C66.996 87.9421 64.7923 92.3302 64.7923 95.6358L70.606 95.6262C70.6109 92.8038 72.7663 91.3347 75.1536 91.3347C77.1133 91.3347 78.899 92.2239 78.899 95.4039V96.9576C77.9083 97.25 73.4501 98.2721 71.4252 98.7699C66.8003 99.8718 63.5938 102.17 63.6203 106.923C63.6469 111.615 66.8341 114.08 71.5992 114.08C75.881 114.075 78.5776 112.169 79.3605 111.625C79.5055 112.212 79.7012 113 79.8003 113.355H85.7832C85.4787 112.372 85.225 110.506 85.225 108.182V95.8606ZM53.8365 113.36H60.1819V82.5849H53.8365V113.36ZM102.867 87.9421C99.5275 87.9421 96.6786 89.8244 95.7217 90.4334V88.5945H89.4271V113.36H95.7217V94.3165C96.7317 93.5118 98.5223 92.1925 100.533 92.1925C103.623 92.1925 104.363 94.0145 104.363 97.6197V113.36H110.662V97.3032C110.662 93.3209 109.983 87.9421 102.867 87.9421ZM130.592 107.495C130.126 108.305 128.106 110.204 125.987 110.204C123.179 110.204 120.775 108.622 120.789 100.894C120.804 93.5118 123.331 91.8421 125.941 91.8421C128.171 91.8421 129.998 93.4901 130.592 94.4832V107.495ZM130.592 90.2594C129.266 89.0729 127.204 87.9614 124.261 87.9807C120.443 87.9807 114.076 90.1506 114.062 100.913C114.038 111.193 119.102 114.097 123.882 114.08C127.651 114.051 130.353 111.7 130.592 111.492V113.36H136.942V82.5849H130.592V90.2594ZM0 113.36H6.85763V82.5849H0V113.36ZM17.8907 91.7962V88.5945H11.5502L11.555 113.36H17.8907V99.1976C17.8907 93.118 23.1922 92.7072 26.2127 92.8377V88.0121C21.351 87.4467 18.4489 90.443 17.8907 91.7962ZM93.1531 0C93.1531 4.65638 72.7759 5.16382 72.7759 10.1754H72.3241C72.3241 5.16382 51.9469 4.65638 51.9469 0H51.4902V4.85936C51.4902 10.6635 71.9085 10.1198 72.3241 15.7017H72.7759C73.1916 10.1198 93.6074 10.6635 93.6074 4.85936V0H93.1531Z" fill="#0000FF"/>
<path d="M93.1531 11.0284C93.1531 15.6872 72.7759 16.1922 72.7759 21.2038H72.3241C72.3241 16.1922 51.9469 15.6872 51.9469 11.0284H51.4902V15.8877C51.4902 21.6943 71.9085 21.1506 72.3241 26.7301H72.7759C73.1916 21.1506 93.6074 21.6943 93.6074 15.8877V11.0284H93.1531Z" fill="#0000FF"/>
<path d="M72.7759 32.2322C72.7759 27.2206 93.1531 26.7156 93.1531 22.0568H93.6074V26.9186C93.6074 32.7203 73.1915 32.1766 72.7759 37.7585H72.3241C71.9085 32.1766 51.4902 32.7203 51.4902 26.9186V22.0568H51.9469C51.9469 26.7156 72.3241 27.2206 72.3241 32.2322H72.7759Z" fill="#0000FF"/>
<path d="M31.7584 152.634L31.0045 149.243C29.1632 151.597 26.5197 153.356 22.7188 153.356C15.6534 153.356 9.01563 149.091 8.97939 137.34C8.96006 125.587 15.4117 121.16 22.7188 121.124C28.924 121.073 34.0105 124.043 35.7382 131.447H28.0058C27.235 127.472 25.5387 125.577 22.6705 125.597C18.4612 125.626 16.2599 129.052 16.2599 137.34C16.2599 145.247 18.4781 148.84 22.6705 148.84C26.1114 148.84 27.8802 146.416 28.3634 141.185H23.8255V136.019H35.8856V152.634H31.7584ZM84.1258 144.01V127.941H90.4325V143.691C90.4325 147.301 91.1719 149.125 94.2648 149.125C96.2777 149.125 98.0682 147.801 99.0782 146.999V127.941H105.38V152.723H99.0782V150.882C98.1213 151.493 95.2725 153.356 91.9306 153.356C84.8072 153.356 84.1258 147.994 84.1258 144.01ZM55.7384 127.303V132.133C52.7155 132.002 47.4092 132.377 47.4092 138.461V152.634H41.0711L41.0638 127.868H47.4092V131.058C47.9674 129.702 50.8742 126.737 55.7384 127.303ZM116.539 133.815C117.005 133.003 119.028 131.104 121.147 131.104C123.957 131.104 126.364 132.686 126.349 140.421C126.335 147.808 123.805 149.48 121.193 149.48C118.962 149.48 117.133 147.832 116.539 146.837V133.815ZM116.539 151.063C117.865 152.252 119.931 153.363 122.875 153.344C126.695 153.344 133.067 151.174 133.081 140.404C133.103 130.115 128.036 127.211 123.251 127.225C119.482 127.254 116.778 129.608 116.539 129.816V127.955H110.184V158.73H116.539V151.063ZM68.5596 130.852C71.9932 130.828 73.4527 133.873 73.5204 140.373C73.5856 146.781 72.1286 149.695 68.5596 149.695C64.9979 149.695 63.6205 146.781 63.6205 140.373C63.6205 133.653 64.981 130.874 68.5596 130.852ZM68.6031 153.356C74.6271 153.356 80.2596 149.855 80.2113 140.373C80.1678 130.838 75.1055 127.175 68.6031 127.225C62.3906 127.254 56.9031 130.845 56.9176 140.373C56.949 149.898 62.5936 153.356 68.6031 153.356Z" fill="#0000FF"/>
</svg>
